PathFileType	4	(X/Y/Z)	SUBJ51_2_walk_RCNL2025.trc
DataRate	CameraRate	NumFrames	NumMarkers	Units	OrigDataRate	OrigDataStartFrame	OrigNumFrames
100	100	11	25	mm	100	29	229
Frame#	Time	R_Shoulder			L_Shoulder			C7			J_Notch			R_Elbow			L_Elbow			R_Wrist			L_Wrist			R_Asis			L_Asis			Sacral			Thoracic			Sternum			R_Thigh_Lateral			R_Knee_Lateral			R_Shank_Lateral			R_Ankle_Lateral			R_Heel			R_Toe			L_Thigh_Lateral			L_Knee_Lateral			L_Shank_Lateral			L_Ankle_Lateral			L_Heel			L_Toe		
		X1	Y1	Z1	X2	Y2	Z2	X3	Y3	Z3	X4	Y4	Z4	X5	Y5	Z5	X6	Y6	Z6	X7	Y7	Z7	X8	Y8	Z8	X9	Y9	Z9	X10	Y10	Z10	X11	Y11	Z11	X12	Y12	Z12	X13	Y13	Z13	X14	Y14	Z14	X15	Y15	Z15	X16	Y16	Z16	X17	Y17	Z17	X18	Y18	Z18	X19	Y19	Z19	X20	Y20	Z20	X21	Y21	Z21	X22	Y22	Z22	X23	Y23	Z23	X24	Y24	Z24	X25	Y25	Z25
29	0.28000000	-1396.579712	1447.070068	426.455078	-1438.883789	1450.973999	-27.682880	-1502.230591	1562.625366	195.363571	-1360.660522	1441.589966	197.815628	-1390.113159	1176.081299	571.515991	-1613.445923	1167.048462	-91.364464	-1162.377258	1040.394379	546.997070	-1662.940247	908.392548	-73.036129	-1406.705200	1005.570557	341.354370	-1376.867065	986.147034	109.125351	-1605.916138	1031.649780	188.337509	-1612.854370	1358.418335	204.082733	-1328.851440	1210.552002	200.867737	-1550.739990	617.422180	402.544495	-1608.087402	502.589691	348.391876	-1714.734009	304.301880	396.007111	-1796.384521	87.803040	266.735107	-1842.363037	91.584267	207.112671	-1644.356567	39.250610	257.590851	-1342.871704	613.041443	-18.982807	-1299.002075	507.515381	33.247898	-1246.476440	324.997192	-12.529009	-1115.932251	82.546860	83.059914	-1157.866943	67.180756	146.446793	-961.630676	126.287071	86.989571
30	0.29000000	-1381.317627	1445.351440	425.175018	-1423.366455	1447.941162	-29.145401	-1486.784058	1560.326416	193.560089	-1345.291016	1439.160156	196.487045	-1375.148438	1175.637451	571.681152	-1600.126465	1164.971924	-91.375511	-1146.098206	1042.724457	546.871887	-1651.196289	906.632935	-73.061598	-1391.511230	1003.157532	341.282928	-1360.570557	984.514099	108.831833	-1590.301758	1029.436768	187.644165	-1597.418335	1356.300415	202.878296	-1313.382568	1208.151123	200.426239	-1537.875854	615.894043	402.577759	-1596.361328	501.444000	348.544922	-1707.007080	305.295990	396.508270	-1794.741211	91.131149	267.917328	-1840.912354	96.115387	208.605011	-1643.967285	39.234238	257.849426	-1324.395630	612.627136	-18.370386	-1281.432251	506.461670	33.838833	-1229.295654	323.457153	-11.227188	-1100.238647	81.015236	85.241058	-1142.713135	66.027412	148.404129	-945.768494	123.781998	90.537041
31	0.30000000	-1365.995483	1443.799805	423.899597	-1407.750610	1445.125854	-30.673645	-1471.249023	1558.306152	191.688126	-1329.848999	1436.996826	195.072037	-1360.743042	1175.144897	571.673218	-1586.177612	1162.866943	-91.541367	-1130.682434	1044.457520	546.759857	-1638.491272	904.784485	-73.312668	-1375.986572	1000.855164	341.129517	-1343.497314	983.502502	108.171844	-1574.400146	1027.452393	186.981781	-1581.839600	1354.410278	201.648590	-1297.707031	1206.039551	199.908691	-1524.471191	614.442139	402.574951	-1583.976685	500.342804	348.723816	-1698.715820	306.562744	397.199036	-1792.779053	94.968452	269.486389	-1839.182251	101.318382	210.552261	-1643.526123	39.209068	258.192657	-1305.301270	612.908691	-17.722679	-1263.631836	505.751831	34.240906	-1212.787964	321.947510	-10.025900	-1087.461304	78.762642	87.480431	-1130.531372	64.705299	150.508224	-932.618347	118.982903	94.069489
32	0.31000000	-1350.616455	1442.461548	422.612000	-1392.056885	1442.586060	-32.260845	-1455.635986	1556.617920	189.745590	-1314.332886	1435.167236	193.575592	-1346.880737	1174.636597	571.485229	-1571.593994	1160.763306	-91.861755	-1116.127441	1045.553833	546.670837	-1624.795410	902.861908	-73.793512	-1360.126221	998.713684	340.894257	-1325.552856	983.153625	107.141640	-1558.225098	1025.754883	186.370651	-1566.122803	1352.804810	200.387665	-1281.808350	1204.281128	199.304626	-1510.476318	613.068542	402.531738	-1570.844971	499.295898	348.907104	-1689.804688	308.152496	398.034760	-1790.378784	99.367561	271.388336	-1837.007202	107.269180	212.882980	-1643.006836	39.170349	258.618958	-1286.022461	613.678955	-17.083570	-1245.818604	505.355103	34.429268	-1196.806396	320.569946	-9.020098	-1077.121094	76.048851	89.578308	-1120.861938	63.456936	152.532181	-921.717896	112.170029	97.556679
33	0.32000000	-1335.189209	1441.390747	421.301147	-1376.295776	1440.378296	-33.890705	-1439.953003	1555.320801	187.729874	-1298.739868	1433.749023	192.006058	-1333.538086	1174.154541	571.105469	-1556.377686	1158.703125	-92.331490	-1102.430420	1045.979309	546.609741	-1610.086548	900.896454	-74.508945	-1343.944214	996.797729	340.572357	-1306.757935	983.474182	105.778870	-1541.819336	1024.421387	185.829483	-1550.276978	1351.551147	199.090881	-1265.681763	1202.947754	198.612381	-1495.814941	611.781250	402.447266	-1556.852661	498.320221	349.076263	-1680.198853	310.131256	398.959534	-1787.386963	104.388321	273.544189	-1834.161987	114.045448	215.484604	-1642.378174	39.117012	259.112793	-1266.906860	614.766113	-16.503288	-1228.187134	505.276337	34.386372	-1181.245972	319.462128	-8.284677	-1068.672852	73.200768	91.318588	-1113.184448	62.545414	154.211472	-912.565796	103.789825	100.941422
34	0.33000000	-1319.724976	1440.650513	419.967346	-1360.470215	1438.558594	-35.539066	-1424.205444	1554.479248	185.642853	-1283.068604	1432.824341	190.373932	-1320.685425	1173.750366	570.516296	-1540.533081	1156.738770	-92.939972	-1089.590210	1045.710876	546.575348	-1594.345764	898.936920	-75.464605	-1327.478760	995.183411	340.150330	-1287.270508	984.438965	104.158974	-1525.248779	1023.536194	185.374557	-1534.316162	1350.719116	197.759964	-1249.340820	1202.111694	197.839172	-1480.372803	610.591248	402.326569	-1541.852539	497.430573	349.222626	-1669.788452	312.569214	399.918213	-1783.610962	110.091988	275.861176	-1830.360229	121.718155	218.216461	-1641.607910	39.042648	259.638519	-1248.209473	616.064209	-16.039221	-1210.862915	505.563751	34.105118	-1166.023926	318.784912	-7.888714	-1061.605713	70.537392	92.531044	-1107.008911	62.176979	155.315216	-904.725159	94.428833	104.128288
35	0.34000000	-1304.234619	1440.311890	418.622253	-1344.578735	1437.181396	-37.175709	-1408.395020	1554.156128	183.496429	-1267.317261	1432.474487	188.691330	-1308.285889	1173.484985	569.694153	-1524.063965	1154.928955	-93.671425	-1077.608398	1044.740356	546.558624	-1577.553284	897.044495	-76.665388	-1310.792603	993.951599	339.604858	-1267.371704	986.000122	102.379517	-1508.590698	1023.172363	185.020508	-1518.261597	1350.365967	196.408722	-1232.820923	1201.836426	196.999756	-1463.997681	609.507690	402.184296	-1525.661621	496.626678	349.353912	-1658.417969	315.525299	400.869568	-1778.817871	116.530243	278.242035	-1825.260010	130.340012	220.924530	-1640.666382	38.931652	260.140900	-1230.084229	617.538635	-15.750634	-1193.877319	506.290802	33.602551	-1151.063721	318.691528	-7.901592	-1055.546265	68.292809	93.156372	-1101.964478	62.423809	155.724792	-897.929260	84.768829	107.000542
36	0.35000000	-1288.723511	1440.446655	417.284210	-1328.616577	1436.293823	-38.767082	-1392.525024	1554.397705	181.316315	-1251.488525	1432.754272	186.976990	-1296.296509	1173.426147	568.610535	-1506.976074	1153.335205	-94.507507	-1066.489197	1043.077271	546.542206	-1559.691406	895.285614	-78.112274	-1293.966553	993.176025	338.905945	-1247.409790	988.098877	100.534950	-1491.923950	1023.371521	184.778976	-1502.144897	1350.521729	195.066040	-1216.177490	1202.166138	196.115997	-1446.513794	608.534851	402.049316	-1508.079346	495.886688	349.502411	-1645.889893	319.031921	401.796478	-1772.741821	123.730827	280.593262	-1818.483398	139.930618	223.457642	-1639.519653	38.778534	260.560181	-1212.558838	619.207886	-15.679813	-1177.184570	507.512299	32.934582	-1136.302979	319.272003	-8.357643	-1050.311523	66.580345	93.279015	-1097.831665	63.196674	155.491669	-892.112610	75.499306	109.463539
37	0.36000000	-1273.190308	1441.114258	415.971405	-1312.579224	1435.929932	-40.279854	-1376.609497	1555.215332	179.143036	-1235.600708	1433.663086	185.262787	-1284.669556	1173.640137	567.238403	-1489.287109	1152.017090	-95.431290	-1056.238281	1040.748383	546.501831	-1540.749207	893.724976	-79.801582	-1277.089478	992.909485	338.022919	-1227.721313	990.674316	98.690285	-1475.324585	1024.128906	184.653625	-1486.010376	1351.186279	193.772537	-1199.482666	1203.112793	195.215149	-1427.754761	607.674133	401.963989	-1488.926636	495.172729	349.727722	-1631.988770	323.083252	402.707489	-1765.102539	131.683105	282.836945	-1809.648315	150.461182	225.688965	-1638.117065	38.614109	260.854156	-1195.529297	621.116455	-15.829836	-1160.729004	509.215851	32.196430	-1121.730469	320.492554	-9.190694	-1045.863892	65.415703	93.095161	-1094.495361	64.302948	154.822189	-887.319519	67.204170	111.488953
38	0.37000000	-1257.632202	1442.346680	414.696228	-1296.465088	1436.105103	-41.683792	-1360.680786	1556.574341	177.028595	-1219.689697	1435.142944	183.592438	-1273.354858	1174.180176	565.560974	-1471.035767	1151.025757	-96.430992	-1046.859131	1037.794983	546.408051	-1520.726440	892.417206	-81.725372	-1260.248901	993.173035	336.930054	-1208.547485	993.675232	96.858940	-1458.863281	1025.390747	184.634216	-1469.908691	1352.332642	192.571060	-1182.819824	1204.647095	194.325531	-1407.601196	606.927795	401.973175	-1468.091187	494.446716	350.103638	-1616.516602	327.629974	403.628937	-1755.632446	140.328949	284.926727	-1798.412476	161.845795	227.544601	-1636.375732	38.513802	261.009827	-1178.829956	623.300232	-16.156677	-1144.534668	511.299622	31.502407	-1107.453125	322.181122	-10.217052	-1042.200562	64.757172	92.833138	-1091.872559	65.544037	153.982941	-883.563538	60.273800	113.134621
39	0.38000000	-1242.055420	1444.136597	413.465973	-1280.280151	1436.811279	-42.954597	-1344.787231	1558.400269	175.028397	-1203.801025	1437.100342	182.013351	-1262.303223	1175.074707	563.580261	-1452.284790	1150.395020	-97.502441	-1038.346313	1034.267639	546.227966	-1499.634583	891.399414	-83.870689	-1243.522705	993.951965	335.611359	-1189.980957	997.066101	94.997154	-1442.600708	1027.066284	184.692078	-1453.889038	1353.909668	191.495773	-1166.276367	1206.696777	193.472366	-1386.018311	606.303467	402.108215	-1445.562012	493.689911	350.692535	-1599.326172	332.585266	404.596436	-1744.109619	149.564392	286.862274	-1784.524414	173.944412	229.030457	-1634.160767	38.595303	261.045776	-1162.374146	625.735168	-16.580812	-1128.757080	513.589478	30.953865	-1093.732910	324.091309	-11.209190	-1039.271973	64.523468	92.678635	-1089.870972	66.774513	153.199295	-880.762146	54.864124	114.521561
